<svg width="36" height="36" viewBox="0 0 36 36" fill="none" xmlns="http://www.w3.org/2000/svg">
<path d="M32.2672 24.3041C31.5722 23.2941 31.9602 21.8341 31.7872 20.2221C31.6092 17.5921 30.4792 15.0441 28.2872 13.0061L20.8212 6.06412C20.8212 6.06412 19.3502 4.69512 17.9802 6.16712C16.6122 7.63812 18.0842 9.00712 18.0842 9.00712L21.2382 11.9411L23.9722 14.4831C23.9722 14.4831 23.2872 15.2191 20.2612 12.4051L10.0412 2.89912C10.0412 2.89912 8.56816 1.53112 7.19916 3.00312C5.83116 4.47412 7.30216 5.84312 7.30216 5.84312L16.9662 14.8321C16.9452 14.8121 16.2352 15.5241 16.2222 15.5121L5.88216 5.89512C5.88216 5.89512 4.41016 4.52612 3.04116 5.99812C1.67216 7.47012 3.14416 8.83812 3.14416 8.83812L13.4852 18.4571C13.4972 18.4691 12.8312 19.2211 12.8512 19.2401L3.93116 10.9421C3.93116 10.9421 2.45916 9.57312 1.09016 11.0451C-0.278837 12.5171 1.19316 13.8861 1.19316 13.8861L10.6772 22.7061C10.7642 22.7871 10.1772 23.6141 10.2862 23.7151L3.45216 17.3591C3.45216 17.3591 1.98016 15.9901 0.611163 17.4631C-0.757837 18.9351 0.714163 20.3041 0.714163 20.3041L11.8612 30.6671C13.7222 32.3981 15.6332 33.2741 17.9372 33.5951C18.4062 33.6601 19.0062 33.6601 19.2522 33.6911C20.0292 33.7891 20.7112 34.0651 21.6242 34.6251C22.7992 35.3451 24.5622 35.6451 25.5752 34.5621L29.0292 30.8671L32.2182 27.4551C33.2302 26.3731 33.0492 25.4391 32.2672 24.3041Z" fill="#EF9645"/>
<path d="M1.9214 34.9832C1.6654 34.9832 1.4094 34.8852 1.2144 34.6902C0.823397 34.2992 0.823397 33.6672 1.2144 33.2762L4.7654 29.7272C5.1564 29.3362 5.7884 29.3362 6.1794 29.7272C6.5704 30.1182 6.5704 30.7502 6.1794 31.1412L2.6284 34.6912C2.4334 34.8862 2.1774 34.9832 1.9214 34.9832ZM8.6674 35.9052C8.5584 35.9052 8.4464 35.8871 8.3364 35.8492C7.8154 35.6672 7.5404 35.0972 7.7234 34.5752L8.6944 31.8022C8.8764 31.2812 9.4474 31.0072 9.9684 31.1882C10.4894 31.3712 10.7644 31.9412 10.5814 32.4622L9.6104 35.2352C9.4664 35.6472 9.0804 35.9052 8.6674 35.9052ZM1.0004 28.2382C0.588397 28.2382 0.202397 27.9812 0.0573974 27.5712C-0.126603 27.0502 0.146397 26.4792 0.667397 26.2952L3.1624 25.4142C3.6854 25.2342 4.2544 25.5052 4.4384 26.0242C4.6224 26.5452 4.3494 27.1162 3.8284 27.3002L1.3334 28.1812C1.2224 28.2202 1.1104 28.2382 1.0004 28.2382ZM30.4604 6.47115C30.2044 6.47115 29.9484 6.37315 29.7534 6.17815C29.3624 5.78715 29.3624 5.15415 29.7534 4.76315L33.3054 1.21315C33.6964 0.823154 34.3284 0.823154 34.7194 1.21315C35.1104 1.60315 35.1104 2.23715 34.7194 2.62815L31.1674 6.17815C30.9724 6.37415 30.7164 6.47115 30.4604 6.47115ZM26.2964 4.77415C26.1874 4.77415 26.0754 4.75515 25.9664 4.71715C25.4454 4.53515 25.1704 3.96515 25.3524 3.44315L26.3224 0.670154C26.5054 0.149154 27.0744 -0.125846 27.5964 0.0561537C28.1174 0.238154 28.3924 0.808154 28.2104 1.33015L27.2404 4.10315C27.0964 4.51615 26.7094 4.77415 26.2964 4.77415ZM32.4394 10.5482C32.0274 10.5482 31.6414 10.2912 31.4964 9.88115C31.3124 9.36015 31.5864 8.78915 32.1064 8.60515L34.6004 7.72415C35.1224 7.53915 35.6924 7.81415 35.8764 8.33415C36.0604 8.85515 35.7864 9.42615 35.2664 9.61015L32.7724 10.4912C32.6614 10.5302 32.5494 10.5482 32.4394 10.5482Z" fill="#FA743E"/>
<path d="M35.3558 23.7792C34.6948 22.7472 35.1318 21.3002 35.0138 19.6832C34.9238 17.0492 33.8808 14.4642 31.7588 12.3532L24.5308 5.16416C24.5308 5.16416 23.1068 3.74716 21.6878 5.17216C20.2708 6.59616 21.6958 8.01416 21.6958 8.01416L24.7498 11.0532L27.3958 13.6852C27.3958 13.6852 26.6858 14.3972 23.7568 11.4832C20.8258 8.56816 13.8628 1.63816 13.8628 1.63816C13.8628 1.63816 12.4378 0.221156 11.0198 1.64616C9.60177 3.07016 11.0268 4.48716 11.0268 4.48716L20.3828 13.7972C20.3628 13.7772 19.6288 14.4642 19.6158 14.4512L9.60577 4.49116C9.60577 4.49116 8.18077 3.07316 6.76277 4.49816C5.34577 5.92316 6.76977 7.34016 6.76977 7.34016L16.7808 17.3022C16.7928 17.3142 16.1008 18.0432 16.1208 18.0632L7.48577 9.47016C7.48577 9.47016 6.06077 8.05316 4.64277 9.47816C3.22477 10.9032 4.64977 12.3212 4.64977 12.3212L13.8308 21.4562C13.9148 21.5392 13.3008 22.3472 13.4058 22.4522L6.78977 15.8692C6.78977 15.8692 5.36477 14.4522 3.94677 15.8772C2.52877 17.3022 3.95377 18.7202 3.95377 18.7202L14.7438 29.4522C16.5458 31.2452 18.4258 32.1842 20.7178 32.5832C21.1848 32.6642 21.7848 32.6842 22.0288 32.7232C22.8018 32.8472 23.4738 33.1462 24.3688 33.7372C25.5188 34.4962 27.2708 34.8552 28.3198 33.8072L31.8968 30.2312L35.1988 26.9292C36.2478 25.8792 36.0988 24.9392 35.3558 23.7792Z" fill="#FFDB5E"/>
</svg>
